PathFileType   4   (X/Y/Z)
DataRate	CameraRate	NumFrames	NumMarkers	Units	OrigDataRate	OrigDataStartFrame	OrigNumFrames
120.0	120.0	8	37	mm	120.0	129	206
Frame#	Time	midhip	hip_r	hip_l	knee_r	knee_l	ankle_r	ankle_l	midasis	asis_r	asis_l	psis_r	psis_l	epicondLat_r	epicondLat_l	epicondMed_r	epicondMed_l	malleolusLat_r	malleolusLat_l	malleolusMedv_r	malleolusMedv_l	neck	subclavicle_r	subclavicle_l	sternalnotch	xyphoidprocess	thighwand_r	thighwand_l	upperleg1_r	upperleg1_l	upperleg2_r	upperleg2_l	shankwand_r	shankwand_l	lowerleg1_r	lowerleg1_l	toe_r	toe_l
 	 	X1	Y1	Z1	X2	Y2	Z2	X3	Y3	Z3	X4	Y4	Z4	X5	Y5	Z5	X6	Y6	Z6	X7	Y7	Z7	X8	Y8	Z8	X9	Y9	Z9	X10	Y10	Z10	X11	Y11	Z11	X12	Y12	Z12	X13	Y13	Z13	X14	Y14	Z14	X15	Y15	Z15	X16	Y16	Z16	X17	Y17	Z17	X18	Y18	Z18	X19	Y19	Z19	X20	Y20	Z20	X21	Y21	Z21	X22	Y22	Z22	X23	Y23	Z23	X24	Y24	Z24	X25	Y25	Z25	X26	Y26	Z26	X27	Y27	Z27	X28	Y28	Z28	X29	Y29	Z29	X30	Y30	Z30	X31	Y31	Z31	X32	Y32	Z32	X33	Y33	Z33	X34	Y34	Z34	X35	Y35	Z35	X36	Y36	Z36	X37	Y37	Z37

	129	1.22500	1914.651	634.026	-162.391	1925.797	645.279	-107.868	1915.676	646.807	-224.867	1952.625	345.709	-105.756	1836.065	347.665	-227.172	1958.197	53.855	-106.008	1638.876	134.061	-224.006	1968.647	705.146	-169.740	1976.234	704.000	-82.026	1961.059	706.291	-257.453	1837.718	732.259	-115.858	1834.867	728.951	-200.325	1951.612	345.943	-59.768	1824.094	351.208	-273.520	1937.526	343.950	-148.706	1852.485	340.075	-188.076	1958.664	53.835	-72.511	1627.350	144.278	-252.624	1961.209	56.789	-132.940	1636.503	138.644	-188.911	1899.774	1040.818	-131.516	1993.008	967.689	-93.301	1993.979	978.844	-184.801	1978.482	985.259	-130.072	2022.253	851.627	-150.981	2060.406	442.362	-127.573	1895.133	419.628	-343.896	1989.208	488.018	-80.504	1922.241	466.923	-263.010	1978.689	400.712	-78.468	1904.460	386.230	-247.139	1992.635	133.487	-8.444	1780.319	150.498	-221.120	1965.564	199.220	-64.305	1770.024	232.730	-230.044	2050.597	40.692	-108.406	1659.420	51.325	-219.578
	130	1.23333	1919.083	634.261	-162.070	1930.283	645.462	-107.434	1920.043	647.193	-224.419	1955.414	345.819	-105.778	1845.430	346.639	-228.060	1958.236	53.859	-106.029	1645.727	135.914	-223.331	1972.902	705.572	-169.229	1980.588	704.273	-81.420	1965.215	706.872	-257.037	1841.931	732.283	-115.310	1839.013	728.986	-199.819	1954.407	345.989	-59.790	1833.444	350.177	-274.404	1940.309	344.326	-148.970	1862.979	338.447	-189.307	1958.758	53.835	-72.533	1634.012	146.378	-251.782	1961.290	56.818	-133.010	1644.213	140.178	-188.274	1903.705	1041.101	-131.079	1996.955	968.140	-93.029	1997.909	979.422	-184.401	1982.451	985.721	-129.789	2026.383	852.206	-150.830	2063.761	441.951	-127.466	1903.510	420.074	-344.787	1992.693	487.943	-80.348	1930.612	466.935	-263.199	1981.705	400.686	-78.546	1914.036	386.023	-248.148	1993.563	133.167	-8.579	1787.453	150.052	-221.997	1966.999	199.188	-64.178	1778.152	232.511	-230.479	2050.518	40.708	-108.543	1667.860	53.935	-221.812
	131	1.24167	1923.480	634.508	-161.822	1934.699	645.640	-107.025	1924.430	647.608	-224.004	1958.142	345.906	-105.825	1854.813	345.843	-228.920	1958.237	53.855	-106.027	1653.153	137.550	-222.586	1977.126	706.018	-168.690	1984.843	704.540	-80.774	1969.408	707.497	-256.607	1846.003	732.320	-114.891	1843.138	729.018	-199.402	1957.172	346.014	-59.835	1842.858	349.356	-275.274	1942.953	344.541	-148.947	1872.884	338.021	-190.404	1958.836	53.832	-72.533	1641.200	148.262	-250.846	1961.343	56.835	-133.036	1652.746	141.241	-187.595	1907.599	1041.473	-130.713	2000.916	968.629	-92.910	2001.768	979.999	-184.162	1986.362	986.221	-129.594	2030.423	852.786	-150.812	2066.987	441.584	-127.457	1912.014	420.627	-345.647	1996.168	487.925	-80.381	1940.303	467.334	-263.298	1984.680	400.642	-78.550	1923.584	386.049	-249.044	1994.514	132.856	-8.719	1795.150	149.710	-222.943	1968.418	199.145	-64.178	1786.712	232.371	-230.922	2050.434	40.739	-108.645	1677.120	56.475	-224.362
	132	1.25000	1927.824	634.783	-161.664	1939.027	645.829	-106.647	1928.834	648.059	-223.628	1960.821	345.966	-105.894	1864.200	345.275	-229.745	1958.210	53.836	-106.011	1661.220	138.864	-221.825	1981.321	706.484	-168.132	1988.990	704.807	-80.104	1973.651	708.162	-256.160	1849.952	732.404	-114.627	1847.254	729.068	-199.089	1959.905	346.015	-59.903	1852.302	348.752	-276.117	1945.048	344.758	-148.914	1883.022	337.625	-191.556	1958.905	53.817	-72.519	1648.968	149.837	-249.856	1961.370	56.847	-133.083	1662.042	141.860	-186.930	1911.372	1041.938	-130.377	2004.879	969.189	-92.908	2005.581	980.608	-184.129	1990.224	986.745	-129.482	2034.455	853.416	-150.904	2070.085	441.241	-127.505	1920.572	421.294	-346.490	1999.591	487.927	-80.584	1949.412	468.043	-263.612	1987.246	400.429	-78.597	1933.143	386.368	-250.002	1995.485	132.550	-8.862	1803.425	149.428	-224.066	1969.848	199.129	-64.380	1795.694	232.319	-231.473	2050.349	40.781	-108.714	1687.104	58.836	-227.116
	133	1.25833	1932.139	635.141	-161.519	1943.249	646.029	-106.308	1933.246	648.546	-223.299	1963.461	345.998	-105.983	1873.596	344.919	-230.533	1958.171	53.801	-105.991	1669.976	139.769	-221.113	1985.485	706.961	-167.558	1993.020	705.064	-79.425	1977.950	708.857	-255.691	1853.807	732.549	-114.508	1851.365	729.152	-198.889	1962.597	345.989	-59.991	1861.753	348.351	-276.922	1947.240	345.104	-149.077	1893.493	336.937	-192.813	1958.967	53.786	-72.501	1657.351	151.026	-248.864	1961.399	56.847	-133.131	1671.951	142.044	-186.300	1915.150	1042.332	-130.070	2008.813	969.786	-92.963	2009.309	981.231	-184.204	1994.045	987.274	-129.456	2038.467	854.079	-151.059	2073.073	440.895	-127.569	1929.116	422.073	-347.328	2002.995	487.946	-80.851	1957.698	468.921	-264.024	1989.877	400.383	-78.791	1942.693	386.874	-251.014	1996.451	132.247	-9.004	1812.275	149.161	-225.461	1971.314	199.042	-64.475	1805.045	232.277	-232.158	2050.269	40.829	-108.757	1697.736	60.930	-229.959
	134	1.26667	1936.361	635.539	-161.425	1947.361	646.235	-106.008	1937.660	649.063	-223.017	1966.067	346.000	-106.092	1883.016	344.747	-231.280	1958.138	53.751	-105.975	1679.439	140.198	-220.511	1989.617	707.438	-166.973	1996.931	705.306	-78.750	1982.303	709.571	-255.196	1857.598	732.745	-114.500	1855.473	729.279	-198.801	1965.233	345.935	-60.100	1871.204	348.128	-277.681	1950.581	345.158	-149.206	1903.780	336.454	-193.985	1959.023	53.741	-72.487	1666.368	151.764	-247.926	1961.461	56.835	-133.160	1682.387	141.804	-185.708	1918.887	1042.745	-129.814	2012.699	970.353	-93.017	2012.918	981.801	-184.274	1997.829	987.792	-129.513	2042.328	854.684	-151.208	2075.979	440.516	-127.599	1937.593	422.954	-348.166	2006.229	487.901	-81.009	1965.745	469.855	-264.542	1993.295	400.613	-78.978	1952.049	387.503	-251.998	1997.372	131.944	-9.140	1821.688	148.875	-227.186	1972.790	198.897	-64.494	1814.760	232.163	-232.961	2050.198	40.877	-108.782	1708.965	62.687	-232.790
	135	1.27500	1940.470	635.937	-161.373	1951.371	646.437	-105.748	1942.073	649.600	-222.781	1968.637	345.974	-106.220	1892.474	344.726	-231.987	1958.130	53.693	-105.972	1689.602	140.110	-220.070	1993.719	707.907	-166.380	2000.734	705.521	-78.085	1986.704	710.294	-254.674	1861.352	732.963	-114.556	1859.579	729.451	-198.816	1967.792	345.854	-60.228	1880.652	348.050	-278.390	1953.895	345.131	-149.423	1913.977	336.178	-195.080	1959.071	53.687	-72.485	1676.017	152.006	-247.092	1961.535	56.815	-133.214	1693.384	141.053	-185.324	1922.531	1043.191	-129.729	2016.515	970.889	-93.132	2016.526	982.291	-184.391	2001.582	988.283	-129.636	2046.124	855.217	-151.327	2078.836	440.081	-127.546	1945.975	423.915	-349.006	2009.350	487.741	-81.020	1973.618	470.846	-265.221	1996.628	400.631	-79.153	1961.264	388.242	-253.005	1998.208	131.640	-9.262	1831.648	148.548	-229.252	1974.157	198.786	-64.674	1824.730	231.916	-233.935	2050.139	40.917	-108.796	1720.761	64.057	-235.536
	136	1.28333	1944.484	636.311	-161.318	1955.304	646.621	-105.527	1946.492	650.142	-222.588	1971.169	345.926	-106.363	1901.974	344.818	-232.657	1958.161	53.634	-105.988	1700.434	139.490	-219.822	1997.796	708.360	-165.784	2004.447	705.702	-77.438	1991.146	711.017	-254.130	1865.098	733.154	-114.625	1863.683	729.662	-198.916	1970.252	345.750	-60.372	1890.101	348.079	-279.051	1956.568	345.275	-149.841	1924.308	335.939	-196.241	1959.114	53.635	-72.501	1686.283	151.719	-246.401	1961.606	56.794	-133.250	1705.158	139.776	-185.310	1926.234	1043.565	-129.770	2020.311	971.397	-93.367	2020.141	982.671	-184.642	2005.305	988.738	-129.808	2049.876	855.661	-151.457	2081.685	439.574	-127.367	1954.256	424.935	-349.842	2012.521	487.520	-80.977	1981.531	471.914	-265.914	1999.445	400.358	-79.372	1970.508	389.028	-254.093	1998.926	131.334	-9.361	1842.143	148.171	-231.620	1975.542	198.692	-64.797	1834.931	231.522	-235.067	2050.090	40.948	-108.802	1733.119	65.010	-238.152
